<svg width="129" height="60" viewBox="0 0 129 60" fill="none" xmlns="http://www.w3.org/2000/svg">
<rect x="0.312943" y="27.4453" width="124" height="33" rx="14.5" transform="rotate(-12.8 0.312943 27.4453)" fill="#0A9B6B"/>
<rect x="0.312943" y="27.4453" width="124" height="33" rx="14.5" transform="rotate(-12.8 0.312943 27.4453)" stroke="#6DFFCF" stroke-width="5"/>
<path d="M16.3697 38.954C16.4654 39.3752 16.5868 39.7592 16.7339 40.1059C16.8837 40.452 17.0559 40.7588 17.2507 41.0263C17.4481 41.2932 17.6664 41.5198 17.9056 41.7061C18.1442 41.8898 18.4022 42.0322 18.6794 42.1332C18.9593 42.2337 19.2566 42.2906 19.5714 42.3039C19.8856 42.3145 20.2143 42.2809 20.5575 42.2029C20.9736 42.1084 21.3358 41.9632 21.644 41.7673C21.9549 41.5709 22.2109 41.3254 22.412 41.0309C22.6131 40.7364 22.7595 40.3941 22.8514 40.004C22.9453 39.6108 22.9809 39.172 22.9584 38.6876L25.0062 38.2224C25.0586 38.9707 25.0058 39.665 24.8477 40.3052C24.6891 40.9429 24.4355 41.5119 24.087 42.0122C23.7411 42.5119 23.3051 42.9337 22.7788 43.2775C22.2546 43.6181 21.6505 43.8661 20.9666 44.0214C20.4439 44.1402 19.9328 44.1893 19.4332 44.1688C18.9367 44.1504 18.464 44.0677 18.015 43.9209C17.5686 43.7734 17.148 43.5654 16.7534 43.2969C16.3607 43.0251 16.0052 42.6998 15.6867 42.321C15.3675 41.9395 15.0913 41.5059 14.8579 41.0202C14.6245 40.5345 14.4419 40.0018 14.3102 39.4219C14.1784 38.842 14.1129 38.2826 14.1135 37.7437C14.1141 37.2049 14.1762 36.6958 14.2998 36.2165C14.4227 35.7346 14.6028 35.2876 14.8401 34.8755C15.0793 34.4602 15.3684 34.0896 15.7073 33.7637C16.0488 33.4373 16.4394 33.1585 16.8791 32.9273C17.3209 32.693 17.8031 32.5164 18.3257 32.3977C19.0097 32.2423 19.6619 32.2062 20.2824 32.2895C20.9049 32.3695 21.4801 32.5602 22.008 32.8614C22.5384 33.162 23.0133 33.5669 23.4325 34.076C23.8511 34.5825 24.1984 35.1845 24.4745 35.882L22.4267 36.3473C22.2377 35.9007 22.0162 35.5217 21.7623 35.2102C21.5103 34.8955 21.23 34.6488 20.9214 34.4701C20.6128 34.2914 20.2759 34.1806 19.9107 34.1378C19.548 34.0944 19.1587 34.1199 18.7426 34.2145C18.3994 34.2924 18.0887 34.4054 17.8105 34.5534C17.5318 34.6987 17.288 34.8772 17.079 35.0888C16.8726 35.2997 16.7018 35.5409 16.5665 35.8123C16.4307 36.081 16.3315 36.3784 16.2688 36.7044C16.2087 37.0298 16.1859 37.3809 16.2004 37.7577C16.2176 38.1339 16.274 38.5327 16.3697 38.954ZM26.2303 38.055C26.1269 37.5999 26.0765 37.1615 26.0792 36.7398C26.0818 36.3181 26.1321 35.9197 26.2301 35.5447C26.3302 35.1664 26.4762 34.8161 26.6681 34.4935C26.8601 34.171 27.0941 33.8826 27.3699 33.6285C27.6452 33.3718 27.9605 33.1525 28.3157 32.9706C28.6703 32.7862 29.0595 32.6458 29.4834 32.5495C29.9073 32.4532 30.319 32.4116 30.7185 32.4247C31.1174 32.4353 31.4964 32.4968 31.8556 32.6094C32.2142 32.7194 32.5498 32.8783 32.8623 33.0862C33.1748 33.2942 33.4566 33.5474 33.7076 33.8458C33.9606 34.1411 34.1794 34.4783 34.364 34.8575C34.5486 35.2367 34.6926 35.6539 34.796 36.1089C34.8994 36.564 34.9501 37.0037 34.948 37.428C34.9454 37.8498 34.8938 38.2484 34.7932 38.6241C34.6952 38.9991 34.5489 39.3482 34.3543 39.6713C34.1623 39.9939 33.9287 40.2835 33.6534 40.5402C33.3807 40.7963 33.0667 41.0153 32.7115 41.1972C32.3595 41.3811 31.9703 41.5215 31.5438 41.6184C31.1199 41.7147 30.7083 41.7562 30.3087 41.7431C29.9098 41.7325 29.5308 41.671 29.1716 41.5584C28.815 41.4453 28.4791 41.2851 28.164 41.0777C27.8515 40.8698 27.5688 40.6182 27.3157 40.3229C27.0653 40.027 26.8478 39.6895 26.6632 39.3103C26.478 38.9285 26.3337 38.5101 26.2303 38.055ZM28.1962 37.6084C28.2961 38.0478 28.4376 38.43 28.6208 38.7548C28.8059 39.0764 29.0261 39.3354 29.2813 39.5318C29.5359 39.7255 29.8207 39.8536 30.1357 39.916C30.4533 39.9779 30.7928 39.9677 31.1542 39.8856C31.5157 39.8035 31.8253 39.6675 32.083 39.4777C32.34 39.2853 32.5399 39.0457 32.6826 38.759C32.8279 38.4717 32.9133 38.1433 32.9387 37.7738C32.9662 37.4011 32.93 36.995 32.8301 36.5556C32.7303 36.1161 32.5878 35.7356 32.4026 35.4139C32.2194 35.0891 32.0005 34.8298 31.7459 34.6361C31.4933 34.4391 31.2099 34.3108 30.8955 34.2509C30.5805 34.1885 30.2422 34.1983 29.8808 34.2805C29.5193 34.3626 29.2087 34.5001 28.9491 34.6931C28.6914 34.8829 28.4899 35.1215 28.3446 35.4088C28.1987 35.6936 28.1121 36.0223 28.0846 36.3949C28.0592 36.7644 28.0964 37.1689 28.1962 37.6084ZM37.9335 35.1008L38.9748 39.684L37.0167 40.1288L35.0626 31.528L37.0207 31.0832L37.5906 33.5912L37.5815 33.6056C37.5727 33.1455 37.6167 32.7253 37.7135 32.345C37.8103 31.9648 37.9557 31.6296 38.1496 31.3394C38.3434 31.0493 38.5838 30.8073 38.8707 30.6136C39.157 30.4173 39.4873 30.2766 39.8618 30.1916C40.2519 30.1029 40.6196 30.0905 40.9649 30.1542C41.3097 30.2154 41.6274 30.3497 41.9179 30.5571C42.2078 30.762 42.4687 31.0377 42.7006 31.3843C42.9345 31.7277 43.1356 32.1373 43.3038 32.6132L43.2834 32.6137C43.2522 32.1149 43.2782 31.6578 43.3616 31.2423C43.4475 30.8263 43.5871 30.4596 43.7802 30.1422C43.9734 29.8249 44.2184 29.5614 44.5154 29.3517C44.8143 29.1388 45.1614 28.9875 45.5567 28.8977C46.0039 28.7961 46.4206 28.7944 46.8066 28.8927C47.1947 28.9877 47.5451 29.1761 47.8579 29.4578C48.1734 29.7389 48.4491 30.1097 48.685 30.5702C48.9208 31.0307 49.1094 31.5717 49.2506 32.1932L50.3645 37.0963L48.4064 37.5412L47.3368 32.8331C47.2458 32.4327 47.1302 32.0925 46.9901 31.8126C46.8493 31.5301 46.6834 31.3053 46.4923 31.1381C46.3012 30.971 46.0852 30.8628 45.8443 30.8136C45.6028 30.7618 45.3351 30.7693 45.0413 30.8361C44.7267 30.9076 44.4598 31.027 44.2408 31.1943C44.0217 31.3617 43.8509 31.5728 43.7283 31.8276C43.6078 32.0792 43.5377 32.3727 43.5182 32.708C43.5007 33.0402 43.5374 33.4065 43.6284 33.8069L44.6697 38.3901L42.7116 38.835L41.6419 34.127C41.5509 33.7265 41.4354 33.3863 41.2952 33.1064C41.1545 32.8239 40.9885 32.5991 40.7974 32.432C40.6063 32.2648 40.3903 32.1566 40.1494 32.1075C39.9079 32.0557 39.6403 32.0631 39.3464 32.1299C39.0318 32.2014 38.7649 32.3208 38.5459 32.4882C38.3269 32.6555 38.1561 32.8666 38.0335 33.1214C37.9129 33.3731 37.8428 33.6665 37.8233 34.0019C37.8058 34.334 37.8425 34.7003 37.9335 35.1008ZM51.7619 27.734L53.716 36.3348L51.7579 36.7797L49.8038 28.1789L51.7619 27.734ZM51.1241 24.782L51.5778 26.7791L49.5573 27.2381L49.1036 25.241L51.1241 24.782ZM56.0646 30.9815L57.1059 35.5647L55.1478 36.0096L53.1937 27.4087L55.1518 26.9639L55.7376 29.5422L55.7276 29.5526C55.7222 29.0835 55.7723 28.6537 55.8777 28.2633C55.9826 27.8703 56.1405 27.5241 56.3514 27.2246C56.5617 26.9225 56.823 26.6703 57.1353 26.4681C57.447 26.2633 57.803 26.1154 58.2035 26.0244C58.682 25.9157 59.1272 25.9075 59.5393 25.9999C59.9507 26.0896 60.3206 26.2736 60.6491 26.5517C60.9802 26.8293 61.2675 27.1974 61.5112 27.6562C61.7575 28.1143 61.9512 28.6541 62.0924 29.2756L63.2064 34.1787L61.2483 34.6236L60.1787 29.9155C60.0877 29.5151 59.9682 29.1758 59.8202 28.8976C59.6743 28.6163 59.4966 28.3942 59.2873 28.2311C59.0806 28.0675 58.8451 27.9638 58.5808 27.9199C58.316 27.8735 58.021 27.8872 57.6959 27.961C57.4619 28.0142 57.252 28.0892 57.0662 28.1861C56.8798 28.2804 56.7156 28.3943 56.5736 28.5277C56.4316 28.6612 56.3132 28.8139 56.2183 28.9858C56.1259 29.1572 56.0581 29.3463 56.0149 29.553C55.9716 29.7597 55.9538 29.9825 55.9616 30.2214C55.9694 30.4603 56.0037 30.7136 56.0646 30.9815ZM69.0604 23.8039L71.0185 23.3591L72.6641 30.6025C72.8201 31.289 72.8615 31.9345 72.7883 32.5391C72.7182 33.1457 72.5448 33.6883 72.2679 34.1668C71.9917 34.648 71.618 35.0556 71.147 35.3895C70.6759 35.7235 70.1206 35.9632 69.4809 36.1085C69.1012 36.1948 68.7312 36.2392 68.3708 36.2418C68.0136 36.2464 67.6734 36.2115 67.3503 36.1373C67.0277 36.0656 66.7257 35.9579 66.4442 35.814C66.1658 35.6721 65.9157 35.4979 65.6937 35.2913C65.4717 35.0846 65.2838 34.8471 65.1298 34.5785C64.9764 34.3125 64.8636 34.0209 64.7916 33.7037L66.7457 33.2597C66.8019 33.5067 66.9043 33.7228 67.053 33.9078C67.2016 34.0927 67.3815 34.2406 67.5926 34.3512C67.8043 34.4645 68.0395 34.5368 68.2982 34.5683C68.5596 34.5991 68.8294 34.583 69.1076 34.5198C69.4561 34.4406 69.7551 34.3002 70.0046 34.0986C70.2541 33.8969 70.4471 33.6452 70.5837 33.3435C70.7208 33.0444 70.8013 32.7006 70.8252 32.3124C70.8491 31.9241 70.81 31.505 70.7078 31.0551L70.325 29.3701L70.3349 29.3596C70.3315 29.8143 70.2752 30.2346 70.166 30.6204C70.0562 31.0036 69.8958 31.3449 69.6849 31.6444C69.4766 31.9433 69.2205 32.1943 68.9166 32.3973C68.6147 32.5972 68.2662 32.742 67.8709 32.8318C67.5303 32.9092 67.1956 32.9346 66.8669 32.9081C66.5382 32.8816 66.2237 32.8095 65.9235 32.6918C65.6227 32.5714 65.338 32.4078 65.0695 32.2008C64.8036 31.9932 64.5604 31.7476 64.3401 31.464C64.1219 31.1773 63.9299 30.8558 63.7642 30.4997C63.6005 30.1403 63.4711 29.7513 63.376 29.3327C63.2809 28.914 63.2298 28.5086 63.2227 28.1164C63.2182 27.7236 63.2531 27.3534 63.3272 27.0057C63.404 26.6573 63.5177 26.3334 63.6684 26.0339C63.8217 25.7338 64.0086 25.4671 64.2291 25.2338C64.449 24.9979 64.7017 24.7983 64.9873 24.635C65.2722 24.469 65.5851 24.3474 65.9257 24.27C66.321 24.1802 66.6979 24.1602 67.0565 24.21C67.4177 24.2592 67.7565 24.3722 68.0729 24.5492C68.3913 24.723 68.6826 24.9576 68.9466 25.2531C69.2106 25.5487 69.4421 25.8994 69.641 26.3055L69.6275 26.3003L69.0604 23.8039ZM69.9758 27.8332C69.9138 27.5602 69.8317 27.3136 69.7298 27.0934C69.6298 26.87 69.5127 26.6737 69.3786 26.5045C69.2444 26.3354 69.0932 26.1934 68.9249 26.0785C68.7566 25.9636 68.5728 25.8768 68.3735 25.8181C68.1743 25.7595 67.9611 25.73 67.734 25.7296C67.509 25.7261 67.2716 25.7526 67.022 25.8094C66.6553 25.8927 66.344 26.0208 66.088 26.1938C65.8314 26.3643 65.6313 26.5793 65.488 26.8388C65.3446 27.0984 65.2598 27.3993 65.2336 27.7416C65.2095 28.0807 65.2456 28.4622 65.3419 28.886C65.4382 29.3099 65.5724 29.6718 65.7444 29.9718C65.9165 30.2718 66.1226 30.5108 66.3626 30.6887C66.6047 30.8634 66.8788 30.9748 67.1851 31.0228C67.4913 31.0708 67.8278 31.0532 68.1944 30.9698C68.4441 30.9131 68.6696 30.8345 68.871 30.7341C69.0744 30.6305 69.252 30.5094 69.4038 30.371C69.5576 30.2294 69.6853 30.0692 69.7868 29.8902C69.8904 29.7081 69.9658 29.5105 70.0131 29.2974C70.0604 29.0843 70.0809 28.8554 70.0745 28.6107C70.0707 28.3654 70.0378 28.1063 69.9758 27.8332ZM79.8885 21.0977C80.497 20.9595 81.0545 20.9039 81.5611 20.931C82.0677 20.9581 82.5135 21.0606 82.8985 21.2384C83.2834 21.4162 83.6015 21.6666 83.8526 21.9896C84.1058 22.3095 84.2832 22.6931 84.3848 23.1403L82.4618 23.5772C82.4139 23.3666 82.3305 23.1859 82.2115 23.0352C82.0925 22.8845 81.9388 22.7677 81.7504 22.6847C81.5646 22.6011 81.346 22.5537 81.0946 22.5424C80.8457 22.5306 80.5679 22.5595 80.2611 22.6292C79.9906 22.6907 79.7482 22.7731 79.5338 22.8765C79.3188 22.9773 79.1413 23.0928 79.0013 23.2231C78.8614 23.3533 78.762 23.4935 78.7031 23.6436C78.6442 23.7937 78.6328 23.9481 78.6688 24.1067C78.6972 24.2315 78.7467 24.3351 78.8174 24.4175C78.8901 24.4967 78.9786 24.5614 79.083 24.6115C79.1899 24.661 79.3101 24.6966 79.4436 24.7183C79.577 24.7399 79.7184 24.7543 79.8677 24.7614C80.019 24.7653 80.1756 24.7625 80.3375 24.7531C80.502 24.743 80.6669 24.7343 80.832 24.7269L81.4266 24.6902C81.6721 24.6755 81.9305 24.6632 82.2018 24.6536C82.4757 24.6433 82.7479 24.6498 83.0184 24.6731C83.291 24.6933 83.5569 24.7381 83.8161 24.8078C84.0773 24.8742 84.3157 24.9787 84.5313 25.1211C84.7494 25.263 84.9395 25.4495 85.1014 25.6807C85.2659 25.9113 85.3872 26.1982 85.4652 26.5415C85.5626 26.9706 85.5621 27.3713 85.4635 27.7438C85.3675 28.1156 85.1777 28.454 84.8943 28.7591C84.6134 29.0635 84.2408 29.3314 83.7765 29.5627C83.3122 29.794 82.7602 29.9823 82.1205 30.1276C81.4522 30.2794 80.8495 30.3467 80.3123 30.3292C79.7757 30.3144 79.3084 30.2196 78.9104 30.0448C78.5145 29.8667 78.1874 29.6129 77.9293 29.2832C77.6738 28.9529 77.4914 28.5473 77.3821 28.0662L79.3051 27.6293C79.3577 27.8607 79.4472 28.0564 79.5738 28.2163C79.7004 28.3763 79.866 28.4973 80.0706 28.5793C80.2752 28.6613 80.5172 28.7034 80.7966 28.7056C81.0786 28.7072 81.399 28.6672 81.7579 28.5856C82.0804 28.5124 82.3621 28.4224 82.6031 28.3157C82.8441 28.209 83.0411 28.089 83.1941 27.9558C83.349 27.8194 83.4567 27.6733 83.5169 27.5174C83.5792 27.3583 83.5906 27.1916 83.551 27.0174C83.5185 26.8744 83.4632 26.7571 83.3849 26.6655C83.3093 26.5733 83.2158 26.4988 83.1045 26.442C82.9931 26.3853 82.8659 26.3431 82.7229 26.3154C82.5799 26.2878 82.4257 26.2708 82.2602 26.2647C82.0941 26.2559 81.9191 26.256 81.7352 26.265C81.5533 26.2708 81.3662 26.2777 81.1739 26.2859L80.5736 26.3156C80.352 26.3277 80.1138 26.338 79.8587 26.3468C79.6036 26.3555 79.3466 26.3496 79.0876 26.3292C78.8281 26.3061 78.5748 26.2625 78.3277 26.1983C78.0801 26.1315 77.8513 26.033 77.6413 25.903C77.4332 25.7698 77.2519 25.5977 77.0974 25.3867C76.9422 25.1731 76.828 24.9051 76.7547 24.5826C76.6631 24.1795 76.6662 23.796 76.764 23.432C76.8618 23.0679 77.0446 22.7351 77.3125 22.4336C77.5829 22.1315 77.9344 21.8671 78.3669 21.6403C78.8014 21.4103 79.3086 21.2295 79.8885 21.0977ZM85.9942 24.477C85.8908 24.0219 85.8404 23.5835 85.843 23.1618C85.8457 22.7401 85.896 22.3417 85.994 21.9666C86.094 21.5884 86.24 21.238 86.432 20.9155C86.624 20.5929 86.8579 20.3046 87.1338 20.0505C87.4091 19.7938 87.7244 19.5745 88.0796 19.3926C88.4342 19.2081 88.8234 19.0678 89.2473 18.9715C89.6711 18.8752 90.0828 18.8336 90.4823 18.8467C90.8812 18.8573 91.2603 18.9188 91.6195 19.0314C91.9781 19.1413 92.3136 19.3003 92.6261 19.5082C92.9386 19.7161 93.2204 19.9693 93.4714 20.2678C93.7245 20.5631 93.9433 20.9003 94.1279 21.2795C94.3125 21.6587 94.4565 22.0758 94.5599 22.5309C94.6633 22.986 94.7139 23.4257 94.7119 23.85C94.7093 24.2717 94.6576 24.6704 94.557 25.046C94.459 25.4211 94.3127 25.7702 94.1181 26.0933C93.9262 26.4159 93.6925 26.7055 93.4172 26.9622C93.1445 27.2183 92.8306 27.4373 92.4754 27.6192C92.1234 27.8031 91.7341 27.9435 91.3077 28.0403C90.8838 28.1366 90.4721 28.1782 90.0726 28.1651C89.6737 28.1545 89.2946 28.093 88.9354 27.9804C88.5788 27.8673 88.243 27.707 87.9279 27.4997C87.6154 27.2918 87.3326 27.0402 87.0796 26.7449C86.8291 26.449 86.6116 26.1115 86.427 25.7323C86.2418 25.3505 86.0976 24.9321 85.9942 24.477ZM87.9601 24.0304C88.0599 24.4698 88.2014 24.852 88.3846 25.1768C88.5698 25.4984 88.79 25.7574 89.0452 25.9538C89.2997 26.1475 89.5845 26.2756 89.8995 26.338C90.2171 26.3999 90.5566 26.3897 90.9181 26.3076C91.2795 26.2255 91.5891 26.0895 91.8468 25.8997C92.1039 25.7073 92.3038 25.4677 92.4465 25.181C92.5918 24.8937 92.6771 24.5653 92.7026 24.1958C92.73 23.8231 92.6938 23.417 92.594 22.9776C92.4941 22.5381 92.3516 22.1575 92.1664 21.8359C91.9832 21.5111 91.7644 21.2518 91.5098 21.0581C91.2572 20.8611 90.9737 20.7327 90.6593 20.6729C90.3443 20.6105 90.0061 20.6203 89.6446 20.7024C89.2832 20.7846 88.9726 20.9221 88.7129 21.1151C88.4552 21.3049 88.2537 21.5435 88.1084 21.8308C87.9626 22.1155 87.8759 22.4442 87.8485 22.8169C87.823 23.1864 87.8602 23.5909 87.9601 24.0304ZM95.6158 22.291C95.5124 21.8359 95.4621 21.3975 95.4647 20.9758C95.4673 20.5541 95.5177 20.1557 95.6157 19.7807C95.7157 19.4024 95.8617 19.052 96.0537 18.7295C96.2456 18.4069 96.4796 18.1186 96.7555 17.8645C97.0308 17.6078 97.346 17.3885 97.7012 17.2066C98.0558 17.0222 98.4451 16.8818 98.8689 16.7855C99.2928 16.6892 99.7045 16.6476 100.104 16.6607C100.503 16.6713 100.882 16.7328 101.241 16.8454C101.6 16.9553 101.935 17.1143 102.248 17.3222C102.56 17.5302 102.842 17.7834 103.093 18.0818C103.346 18.3771 103.565 18.7143 103.75 19.0935C103.934 19.4727 104.078 19.8899 104.182 20.3449C104.285 20.8 104.336 21.2397 104.334 21.664C104.331 22.0858 104.279 22.4844 104.179 22.8601C104.081 23.2351 103.934 23.5842 103.74 23.9073C103.548 24.2299 103.314 24.5195 103.039 24.7762C102.766 25.0323 102.452 25.2513 102.097 25.4332C101.745 25.6171 101.356 25.7575 100.929 25.8544C100.505 25.9507 100.094 25.9922 99.6943 25.9791C99.2954 25.9685 98.9163 25.907 98.5571 25.7944C98.2005 25.6813 97.8647 25.521 97.5496 25.3137C97.2371 25.1058 96.9543 24.8542 96.7013 24.5589C96.4508 24.263 96.2333 23.9255 96.0487 23.5463C95.8635 23.1645 95.7192 22.7461 95.6158 22.291ZM97.5817 21.8444C97.6816 22.2838 97.8231 22.666 98.0063 22.9908C98.1915 23.3124 98.4117 23.5714 98.6668 23.7678C98.9214 23.9615 99.2062 24.0896 99.5212 24.152C99.8388 24.2139 100.178 24.2037 100.54 24.1216C100.901 24.0395 101.211 23.9035 101.468 23.7137C101.726 23.5213 101.925 23.2817 102.068 22.995C102.213 22.7077 102.299 22.3793 102.324 22.0098C102.352 21.6371 102.315 21.231 102.216 20.7916C102.116 20.3521 101.973 19.9715 101.788 19.6499C101.605 19.3251 101.386 19.0658 101.131 18.8721C100.879 18.6751 100.595 18.5467 100.281 18.4869C99.966 18.4245 99.6278 18.4343 99.2663 18.5164C98.9049 18.5986 98.5943 18.7361 98.3346 18.9291C98.0769 19.1189 97.8754 19.3575 97.7301 19.6448C97.5842 19.9296 97.4976 20.2583 97.4701 20.6309C97.4447 21.0004 97.4819 21.4049 97.5817 21.8444ZM107.319 19.3368L108.36 23.92L106.402 24.3648L104.448 15.764L106.406 15.3191L106.992 17.8974L106.982 17.9079C106.977 17.4388 107.027 17.009 107.132 16.6186C107.237 16.2256 107.395 15.8794 107.606 15.5799C107.816 15.2778 108.077 15.0256 108.39 14.8234C108.701 14.6186 109.057 14.4707 109.458 14.3797C109.936 14.271 110.382 14.2628 110.794 14.3552C111.205 14.4449 111.575 14.6288 111.904 14.907C112.235 15.1845 112.522 15.5527 112.766 16.0114C113.012 16.4696 113.206 17.0094 113.347 17.6309L114.461 22.534L112.503 22.9788L111.433 18.2708C111.342 17.8703 111.223 17.531 111.075 17.2529C110.929 16.9716 110.751 16.7494 110.542 16.5864C110.335 16.4228 110.1 16.3191 109.835 16.2752C109.57 16.2287 109.275 16.2424 108.95 16.3163C108.716 16.3694 108.506 16.4445 108.321 16.5414C108.134 16.6357 107.97 16.7496 107.828 16.883C107.686 17.0164 107.568 17.1691 107.473 17.3411C107.38 17.5125 107.313 17.7016 107.269 17.9083C107.226 18.115 107.208 18.3378 107.216 18.5767C107.224 18.8156 107.258 19.0689 107.319 19.3368Z" fill="#DDFFF4"/>
</svg>
