<svg width="200" height="61" viewBox="0 0 200 61" fill="none" xmlns="http://www.w3.org/2000/svg">
<rect y="5" width="200" height="56" rx="28" fill="#8E7AF0"/>
<rect width="200" height="56" rx="28" fill="white"/>
<path d="M130 18C124.48 18 120 22.48 120 28C120 33.52 124.48 38 130 38C135.52 38 140 33.52 140 28C140 22.48 135.52 18 130 18ZM134.03 28.53L131.03 31.53C130.88 31.68 130.69 31.75 130.5 31.75C130.31 31.75 130.12 31.68 129.97 31.53C129.68 31.24 129.68 30.76 129.97 30.47L131.69 28.75H126.5C126.09 28.75 125.75 28.41 125.75 28C125.75 27.59 126.09 27.25 126.5 27.25H131.69L129.97 25.53C129.68 25.24 129.68 24.76 129.97 24.47C130.26 24.18 130.74 24.18 131.03 24.47L134.03 27.47C134.32 27.76 134.32 28.24 134.03 28.53Z" fill="#0C091B"/>
<path d="M59.552 31V19.56H63.724C64.2973 19.56 64.8387 19.6213 65.348 19.744C65.86 19.864 66.3293 20.04 66.756 20.272C67.1853 20.504 67.5707 20.7867 67.912 21.12C68.2533 21.4533 68.5413 21.832 68.776 22.256C69.0133 22.68 69.1947 23.1453 69.32 23.652C69.448 24.1587 69.512 24.7013 69.512 25.28C69.512 25.8587 69.448 26.4013 69.32 26.908C69.1947 27.4147 69.0133 27.88 68.776 28.304C68.5413 28.728 68.2533 29.1067 67.912 29.44C67.5707 29.7733 67.1853 30.056 66.756 30.288C66.3293 30.52 65.86 30.6973 65.348 30.82C64.8387 30.94 64.2973 31 63.724 31H59.552ZM62.056 29.12L61.768 28.832H63.668C64.0173 28.832 64.3413 28.7973 64.64 28.728C64.9387 28.6587 65.2093 28.556 65.452 28.42C65.6973 28.284 65.9133 28.116 66.1 27.916C66.2893 27.7133 66.448 27.48 66.576 27.216C66.704 26.952 66.8013 26.6587 66.868 26.336C66.9347 26.0133 66.968 25.6613 66.968 25.28C66.968 24.8987 66.9347 24.5467 66.868 24.224C66.8013 23.9013 66.704 23.608 66.576 23.344C66.448 23.08 66.2893 22.848 66.1 22.648C65.9133 22.4453 65.6973 22.276 65.452 22.14C65.2093 22.004 64.9387 21.9013 64.64 21.832C64.3413 21.7627 64.0173 21.728 63.668 21.728H61.768L62.056 21.44V29.12ZM72.6722 26.748C72.6722 27.148 72.7229 27.508 72.8242 27.828C72.9282 28.1453 73.0762 28.4147 73.2682 28.636C73.4602 28.8573 73.6936 29.028 73.9682 29.148C74.2456 29.2653 74.5589 29.324 74.9082 29.324C75.1402 29.324 75.3536 29.2973 75.5482 29.244C75.7456 29.188 75.9229 29.1053 76.0802 28.996C76.2402 28.884 76.3816 28.7467 76.5043 28.584C76.6296 28.4187 76.7349 28.228 76.8203 28.012H79.0723C78.9523 28.5133 78.7643 28.964 78.5083 29.364C78.2523 29.764 77.9416 30.1027 77.5763 30.38C77.2136 30.6573 76.8002 30.8693 76.3362 31.016C75.8749 31.1653 75.3762 31.24 74.8403 31.24C74.1736 31.24 73.5669 31.128 73.0202 30.904C72.4736 30.68 72.0042 30.364 71.6122 29.956C71.2229 29.5453 70.9202 29.0547 70.7042 28.484C70.4909 27.9107 70.3842 27.276 70.3842 26.58C70.3842 25.8893 70.4896 25.2587 70.7002 24.688C70.9136 24.1173 71.2136 23.6293 71.6002 23.224C71.9869 22.816 72.4509 22.5 72.9922 22.276C73.5336 22.052 74.1336 21.94 74.7922 21.94C75.4429 21.94 76.0336 22.0507 76.5642 22.272C77.0976 22.4907 77.5523 22.8027 77.9282 23.208C78.3069 23.6107 78.5989 24.0973 78.8042 24.668C79.0096 25.236 79.1123 25.8693 79.1123 26.568C79.1123 26.6747 79.1096 26.7827 79.1042 26.892C79.0989 26.9987 79.0909 27.108 79.0802 27.22H71.8682V25.74H77.8162L76.8442 27.196C76.8549 27.092 76.8616 26.9893 76.8642 26.888C76.8696 26.784 76.8723 26.6827 76.8723 26.584C76.8723 26.1307 76.8269 25.7333 76.7362 25.392C76.6482 25.048 76.5176 24.76 76.3442 24.528C76.1709 24.296 75.9549 24.1213 75.6962 24.004C75.4402 23.884 75.1429 23.824 74.8042 23.824C74.4682 23.824 74.1683 23.8827 73.9042 24C73.6402 24.1173 73.4162 24.288 73.2322 24.512C73.0509 24.7333 72.9122 25.0053 72.8162 25.328C72.7202 25.6507 72.6722 26.016 72.6722 26.424V26.748ZM82.5049 22.18V24.9L82.4929 24.908C82.5889 24.4387 82.7262 24.02 82.9049 23.652C83.0835 23.284 83.2982 22.9733 83.5489 22.72C83.8022 22.4667 84.0902 22.2733 84.4129 22.14C84.7382 22.0067 85.0915 21.94 85.4729 21.94C85.8222 21.94 86.1529 21.992 86.4649 22.096C86.7769 22.1973 87.0649 22.344 87.3289 22.536C87.5929 22.728 87.8302 22.9627 88.0409 23.24C88.2542 23.5147 88.4342 23.824 88.5809 24.168C88.7275 24.512 88.8395 24.888 88.9169 25.296C88.9969 25.7013 89.0369 26.132 89.0369 26.588C89.0369 27.044 88.9969 27.476 88.9169 27.884C88.8395 28.2893 88.7275 28.6653 88.5809 29.012C88.4342 29.356 88.2542 29.6653 88.0409 29.94C87.8302 30.2147 87.5929 30.4493 87.3289 30.644C87.0649 30.836 86.7769 30.9827 86.4649 31.084C86.1529 31.188 85.8222 31.24 85.4729 31.24C85.0915 31.24 84.7382 31.1733 84.4129 31.04C84.0902 30.9067 83.8022 30.7133 83.5489 30.46C83.2982 30.2067 83.0835 29.896 82.9049 29.528C82.7262 29.1573 82.5889 28.7373 82.4929 28.268L82.5049 28.28V34.024H80.1089V22.18H82.5049ZM82.5049 26.588C82.5049 26.8627 82.5249 27.1173 82.5649 27.352C82.6075 27.5867 82.6689 27.8 82.7489 27.992C82.8289 28.184 82.9275 28.3547 83.0449 28.504C83.1649 28.6507 83.3022 28.7747 83.4569 28.876C83.6115 28.9747 83.7822 29.0493 83.9689 29.1C84.1582 29.1507 84.3622 29.176 84.5809 29.176C84.9169 29.176 85.2115 29.1213 85.4649 29.012C85.7209 28.9027 85.9342 28.7387 86.1049 28.52C86.2755 28.3013 86.4049 28.0307 86.4929 27.708C86.5809 27.3853 86.6249 27.012 86.6249 26.588C86.6249 26.164 86.5809 25.7907 86.4929 25.468C86.4075 25.1453 86.2782 24.876 86.1049 24.66C85.9342 24.4413 85.7209 24.2773 85.4649 24.168C85.2115 24.0587 84.9169 24.004 84.5809 24.004C84.3622 24.004 84.1582 24.0293 83.9689 24.08C83.7822 24.1307 83.6115 24.2067 83.4569 24.308C83.3022 24.4067 83.1649 24.5293 83.0449 24.676C82.9275 24.8227 82.8289 24.992 82.7489 25.184C82.6689 25.376 82.6075 25.5893 82.5649 25.824C82.5249 26.0587 82.5049 26.3133 82.5049 26.588ZM92.4205 19.16V31H90.0245V19.16H92.4205ZM93.4124 26.588C93.4124 26.1187 93.4617 25.6787 93.5604 25.268C93.659 24.8547 93.8004 24.476 93.9844 24.132C94.171 23.788 94.3964 23.48 94.6604 23.208C94.9244 22.936 95.2217 22.7067 95.5524 22.52C95.883 22.3307 96.2444 22.1867 96.6364 22.088C97.0284 21.9893 97.4444 21.94 97.8844 21.94C98.3244 21.94 98.7404 21.9893 99.1324 22.088C99.5244 22.1867 99.8857 22.3307 100.216 22.52C100.547 22.7067 100.844 22.936 101.108 23.208C101.372 23.48 101.596 23.788 101.78 24.132C101.967 24.476 102.11 24.8547 102.208 25.268C102.307 25.6787 102.356 26.1187 102.356 26.588C102.356 27.0573 102.307 27.4987 102.208 27.912C102.11 28.3227 101.967 28.7013 101.78 29.048C101.596 29.392 101.372 29.7 101.108 29.972C100.844 30.2413 100.547 30.4707 100.216 30.66C99.8857 30.8493 99.5244 30.9933 99.1324 31.092C98.7404 31.1907 98.3244 31.24 97.8844 31.24C97.4444 31.24 97.0284 31.1907 96.6364 31.092C96.2444 30.9933 95.883 30.8493 95.5524 30.66C95.2217 30.4707 94.9244 30.2413 94.6604 29.972C94.3964 29.7 94.171 29.392 93.9844 29.048C93.8004 28.7013 93.659 28.3227 93.5604 27.912C93.4617 27.4987 93.4124 27.0573 93.4124 26.588ZM95.8244 26.588C95.8244 26.996 95.8697 27.36 95.9604 27.68C96.0537 27.9973 96.1884 28.2653 96.3644 28.484C96.543 28.7027 96.7604 28.8693 97.0164 28.984C97.2724 29.096 97.563 29.152 97.8884 29.152C98.211 29.152 98.5004 29.096 98.7564 28.984C99.0124 28.8693 99.2284 28.7027 99.4044 28.484C99.5804 28.2653 99.7137 27.9973 99.8044 27.68C99.8977 27.36 99.9444 26.996 99.9444 26.588C99.9444 26.18 99.8977 25.8173 99.8044 25.5C99.7137 25.18 99.5804 24.912 99.4044 24.696C99.2284 24.4773 99.0124 24.312 98.7564 24.2C98.5004 24.0853 98.211 24.028 97.8884 24.028C97.563 24.028 97.2724 24.0853 97.0164 24.2C96.7604 24.312 96.543 24.4773 96.3644 24.696C96.1884 24.912 96.0537 25.18 95.9604 25.5C95.8697 25.8173 95.8244 26.18 95.8244 26.588ZM109.133 22.18H111.597L108.233 31.248C108.041 31.7733 107.815 32.2253 107.553 32.604C107.295 32.9853 106.995 33.2987 106.653 33.544C106.312 33.792 105.928 33.9747 105.501 34.092C105.077 34.212 104.601 34.272 104.073 34.272C103.873 34.272 103.668 34.2627 103.457 34.244C103.249 34.2253 103.033 34.1973 102.809 34.16V32.224C102.993 32.248 103.163 32.2667 103.317 32.28C103.472 32.2933 103.617 32.3 103.753 32.3C104.007 32.3 104.236 32.2773 104.441 32.232C104.647 32.1893 104.832 32.1213 104.997 32.028C105.165 31.9373 105.313 31.82 105.441 31.676C105.572 31.532 105.687 31.36 105.785 31.16L106.009 30.62L105.801 31.564L102.373 22.18H104.893L107.313 30.18H106.681L109.133 22.18Z" fill="#0C091B"/>
</svg>
