<svg width="129" height="60" viewBox="0 0 129 60" fill="none" xmlns="http://www.w3.org/2000/svg">
<rect x="0.312813" y="27.4459" width="124" height="33" rx="14.5" transform="rotate(-12.804 0.312813 27.4459)" fill="#7A186F"/>
<rect x="0.312813" y="27.4459" width="124" height="33" rx="14.5" transform="rotate(-12.804 0.312813 27.4459)" stroke="#FFC4F8" stroke-width="5"/>
<path d="M16.3704 38.9534C16.4661 39.3747 16.5876 39.7586 16.7347 40.1053C16.8845 40.4514 17.0567 40.7582 17.2515 41.0257C17.4489 41.2926 17.6672 41.5191 17.9065 41.7054C18.1451 41.8891 18.4031 42.0315 18.6804 42.1325C18.9603 42.233 19.2576 42.2899 19.5723 42.3031C19.8865 42.3137 20.2152 42.2801 20.5585 42.202C20.9745 42.1075 21.3367 41.9623 21.6449 41.7664C21.9558 41.57 22.2118 41.3245 22.4128 41.0299C22.6139 40.7354 22.7603 40.3931 22.8522 40.003C22.946 39.6098 22.9817 39.171 22.9591 38.6866L25.0069 38.2212C25.0593 38.9695 25.0066 39.6638 24.8485 40.3041C24.6899 40.9418 24.4364 41.5108 24.0879 42.0111C23.7421 42.5109 23.306 42.9326 22.7798 43.2765C22.2556 43.6171 21.6516 43.8652 20.9677 44.0206C20.445 44.1394 19.9338 44.1885 19.4342 44.1681C18.9378 44.1496 18.4651 44.067 18.016 43.9202C17.5696 43.7728 17.149 43.5648 16.7544 43.2963C16.3617 43.0246 16.0061 42.6993 15.6876 42.3205C15.3685 41.939 15.0922 41.5055 14.8587 41.0198C14.6253 40.5341 14.4427 40.0013 14.3109 39.4215C14.1791 38.8416 14.1135 38.2822 14.1141 37.7433C14.1147 37.2045 14.1768 36.6954 14.3003 36.2161C14.4232 35.7342 14.6033 35.2872 14.8405 34.875C15.0797 34.4597 15.3688 34.0891 15.7077 33.7632C16.0491 33.4368 16.4397 33.1579 16.8794 32.9267C17.3211 32.6924 17.8033 32.5158 18.326 32.397C19.0099 32.2416 19.6621 32.2054 20.2826 32.2887C20.9052 32.3687 21.4804 32.5593 22.0083 32.8605C22.5387 33.161 23.0136 33.5659 23.4328 34.0749C23.8515 34.5814 24.1989 35.1834 24.475 35.8809L22.4272 36.3463C22.2382 35.8997 22.0167 35.5207 21.7627 35.2093C21.5107 34.8946 21.2304 34.648 20.9218 34.4692C20.6132 34.2905 20.2763 34.1798 19.911 34.137C19.5484 34.0936 19.159 34.1192 18.743 34.2137C18.3997 34.2918 18.0891 34.4047 17.8109 34.5527C17.5322 34.6981 17.2884 34.8766 17.0794 35.0882C16.873 35.2991 16.7022 35.5403 16.567 35.8117C16.4312 36.0805 16.332 36.3779 16.2693 36.7039C16.2093 37.0293 16.1865 37.3804 16.2011 37.7572C16.2182 38.1334 16.2746 38.5322 16.3704 38.9534ZM26.2309 38.0538C26.1275 37.5987 26.0771 37.1603 26.0797 36.7386C26.0823 36.3169 26.1326 35.9185 26.2306 35.5434C26.3306 35.1652 26.4766 34.8148 26.6685 34.4922C26.8605 34.1697 27.0944 33.8813 27.3703 33.6272C27.6456 33.3705 27.9608 33.1512 28.316 32.9693C28.6706 32.7848 29.0598 32.6443 29.4837 32.548C29.9075 32.4517 30.3192 32.4101 30.7187 32.4232C31.1176 32.4337 31.4967 32.4953 31.8559 32.6078C32.2145 32.7177 32.5501 32.8766 32.8626 33.0845C33.1751 33.2925 33.4569 33.5456 33.7079 33.8441C33.961 34.1393 34.1798 34.4766 34.3645 34.8557C34.5491 35.2349 34.6931 35.652 34.7965 36.1071C34.8999 36.5622 34.9507 37.0019 34.9486 37.4262C34.946 37.8479 34.8944 38.2466 34.7939 38.6222C34.6959 38.9973 34.5496 39.3464 34.355 39.6695C34.1631 39.9921 33.9295 40.2817 33.6542 40.5385C33.3815 40.7946 33.0676 41.0136 32.7124 41.1955C32.3604 41.3794 31.9712 41.5198 31.5447 41.6168C31.1208 41.7131 30.7092 41.7547 30.3096 41.7416C29.9107 41.7311 29.5317 41.6695 29.1725 41.557C28.8159 41.4439 28.48 41.2837 28.1649 41.0763C27.8524 40.8684 27.5696 40.6169 27.3165 40.3216C27.0661 40.0257 26.8485 39.6882 26.6639 39.309C26.4787 38.9273 26.3344 38.5088 26.2309 38.0538ZM28.1968 37.607C28.2967 38.0465 28.4382 38.4286 28.6214 38.7534C28.8067 39.075 29.0269 39.334 29.282 39.5303C29.5366 39.7241 29.8214 39.8521 30.1364 39.9145C30.454 39.9764 30.7936 39.9662 31.155 39.884C31.5165 39.8019 31.826 39.6659 32.0837 39.4761C32.3408 39.2837 32.5406 39.0441 32.6833 38.7573C32.8286 38.47 32.9139 38.1416 32.9393 37.7721C32.9668 37.3994 32.9305 36.9933 32.8307 36.5539C32.7308 36.1144 32.5882 35.7339 32.403 35.4123C32.2198 35.0875 32.0009 34.8282 31.7463 34.6345C31.4937 34.4375 31.2102 34.3092 30.8958 34.2494C30.5808 34.187 30.2426 34.1968 29.8812 34.279C29.5197 34.3611 29.2091 34.4987 28.9495 34.6917C28.6918 34.8815 28.4903 35.1201 28.3451 35.4075C28.1992 35.6922 28.1126 36.0209 28.0851 36.3936C28.0597 36.7631 28.0969 37.1675 28.1968 37.607ZM37.9339 35.0987L38.9755 39.6819L37.0175 40.1269L35.0628 31.5262L37.0209 31.0812L37.5909 33.5892L37.5818 33.6036C37.573 33.1434 37.6169 32.7232 37.7138 32.343C37.8106 31.9628 37.9559 31.6276 38.1497 31.3374C38.3436 31.0472 38.5839 30.8053 38.8708 30.6115C39.1571 30.4152 39.4874 30.2745 39.8619 30.1894C40.2519 30.1007 40.6197 30.0883 40.965 30.152C41.3098 30.2131 41.6275 30.3474 41.918 30.5548C42.2079 30.7596 42.4689 31.0353 42.7008 31.3819C42.9347 31.7253 43.1358 32.1349 43.3041 32.6108L43.2837 32.6113C43.2524 32.1125 43.2784 31.6554 43.3617 31.2399C43.4477 30.8238 43.5872 30.4571 43.7803 30.1398C43.9735 29.8224 44.2185 29.5589 44.5154 29.3492C44.8143 29.1363 45.1614 28.985 45.5567 28.8952C46.0039 28.7935 46.4206 28.7918 46.8066 28.89C47.1947 28.9851 47.5451 29.1734 47.858 29.4551C48.1735 29.7361 48.4492 30.1069 48.6851 30.5674C48.921 31.0279 49.1096 31.5689 49.2508 32.1904L50.3651 37.0934L48.407 37.5384L47.3371 32.8304C47.2461 32.43 47.1305 32.0898 46.9903 31.8099C46.8495 31.5274 46.6836 31.3026 46.4924 31.1355C46.3013 30.9683 46.0853 30.8602 45.8444 30.811C45.6029 30.7593 45.3353 30.7668 45.0414 30.8335C44.7268 30.905 44.46 31.0245 44.2409 31.1918C44.0219 31.3592 43.8511 31.5703 43.7286 31.8252C43.608 32.0768 43.538 32.3703 43.5185 32.7056C43.501 33.0377 43.5377 33.404 43.6287 33.8045L44.6703 38.3876L42.7123 38.8326L41.6423 34.1247C41.5513 33.7242 41.4357 33.3841 41.2955 33.1042C41.1547 32.8217 40.9888 32.5969 40.7977 32.4297C40.6065 32.2626 40.3905 32.1544 40.1496 32.1053C39.9082 32.0535 39.6405 32.061 39.3467 32.1278C39.032 32.1993 38.7652 32.3187 38.5462 32.4861C38.3271 32.6535 38.1563 32.8646 38.0338 33.1194C37.9132 33.371 37.8432 33.6645 37.8237 33.9998C37.8062 34.332 37.8429 34.6983 37.9339 35.0987ZM51.7619 27.731L53.7165 36.3317L51.7584 36.7767L49.8038 28.176L51.7619 27.731ZM51.1238 24.779L51.5777 26.7761L49.5572 27.2353L49.1033 25.2382L51.1238 24.779ZM56.0647 30.9782L57.1063 35.5613L55.1483 36.0063L53.1936 27.4056L55.1517 26.9606L55.7376 29.5389L55.7277 29.5494C55.7223 29.0802 55.7723 28.6505 55.8777 28.2601C55.9825 27.8671 56.1404 27.5208 56.3513 27.2213C56.5615 26.9192 56.8228 26.667 57.1351 26.4648C57.4468 26.2599 57.8029 26.112 58.2033 26.021C58.6818 25.9122 59.127 25.904 59.5391 25.9964C59.9505 26.0861 60.3205 26.27 60.6489 26.5481C60.98 26.8256 61.2674 27.1938 61.5111 27.6525C61.7575 28.1106 61.9512 28.6504 62.0925 29.2719L63.2068 34.1749L61.2487 34.6199L60.1787 29.912C60.0877 29.5115 59.9682 29.1722 59.8202 28.8941C59.6743 28.6128 59.4966 28.3906 59.2873 28.2276C59.0806 28.064 58.8451 27.9603 58.5808 27.9165C58.3159 27.87 58.0209 27.8837 57.6959 27.9576C57.4618 28.0108 57.2519 28.0858 57.0661 28.1828C56.8797 28.2771 56.7155 28.391 56.5736 28.5244C56.4316 28.6579 56.3132 28.8106 56.2183 28.9825C56.126 29.1539 56.0582 29.343 56.0149 29.5497C55.9717 29.7564 55.9539 29.9792 55.9617 30.2181C55.9695 30.457 56.0039 30.7104 56.0647 30.9782ZM69.06 23.7997L71.0181 23.3547L72.6642 30.598C72.8203 31.2845 72.8617 31.9301 72.7885 32.5346C72.7185 33.1412 72.5451 33.6838 72.2683 34.1624C71.9921 34.6436 71.6185 35.0512 71.1474 35.3852C70.6764 35.7192 70.1211 35.9589 69.4814 36.1043C69.1017 36.1906 68.7317 36.235 68.3713 36.2376C68.0141 36.2422 67.674 36.2074 67.3508 36.1332C67.0282 36.0616 66.7262 35.9538 66.4446 35.81C66.1663 35.6682 65.9161 35.4939 65.6941 35.2873C65.4722 35.0807 65.2842 34.8431 65.1302 34.5746C64.9767 34.3086 64.864 34.017 64.7919 33.6998L66.7461 33.2557C66.8022 33.5027 66.9046 33.7187 67.0533 33.9037C67.202 34.0887 67.3819 34.2365 67.593 34.3471C67.8047 34.4604 68.0399 34.5327 68.2986 34.5641C68.56 34.595 68.8298 34.5788 69.108 34.5156C69.4564 34.4364 69.7554 34.296 70.0049 34.0943C70.2545 33.8927 70.4475 33.641 70.584 33.3392C70.7211 33.04 70.8016 32.6963 70.8255 32.308C70.8494 31.9198 70.8102 31.5007 70.7079 31.0508L70.325 29.3658L70.3349 29.3553C70.3316 29.81 70.2753 30.2303 70.1661 30.6161C70.0563 30.9993 69.896 31.3407 69.6851 31.6402C69.4769 31.9391 69.2208 32.1901 68.9169 32.3931C68.615 32.593 68.2664 32.7379 67.8712 32.8277C67.5305 32.9051 67.1959 32.9306 66.8672 32.9041C66.5384 32.8776 66.224 32.8055 65.9238 32.6878C65.6229 32.5675 65.3383 32.4038 65.0697 32.1969C64.8038 31.9893 64.5606 31.7437 64.3403 31.4602C64.122 31.1734 63.93 30.852 63.7643 30.4959C63.6006 30.1365 63.4712 29.7475 63.376 29.3289C63.2809 28.9102 63.2298 28.5048 63.2227 28.1126C63.2182 27.7199 63.253 27.3496 63.3271 27.0019C63.4038 26.6535 63.5175 26.3296 63.6682 26.0301C63.8215 25.73 64.0084 25.4633 64.2288 25.23C64.4487 24.994 64.7014 24.7944 64.987 24.6311C65.2719 24.4651 65.5848 24.3434 65.9254 24.266C66.3207 24.1762 66.6976 24.1561 67.0562 24.2059C67.4174 24.2551 67.7562 24.3681 68.0726 24.5451C68.3911 24.7188 68.6823 24.9535 68.9464 25.249C69.2104 25.5445 69.4419 25.8952 69.6408 26.3012L69.6273 26.2961L69.06 23.7997ZM69.9757 27.829C69.9137 27.556 69.8316 27.3093 69.7296 27.0891C69.6296 26.8657 69.5126 26.6695 69.3784 26.5003C69.2443 26.3312 69.093 26.1892 68.9247 26.0743C68.7564 25.9594 68.5726 25.8726 68.3733 25.814C68.174 25.7554 67.9609 25.7259 67.7338 25.7255C67.5088 25.722 67.2714 25.7486 67.0218 25.8053C66.6551 25.8886 66.3438 26.0168 66.0878 26.1899C65.8312 26.3603 65.6312 26.5753 65.4878 26.8349C65.3444 27.0944 65.2597 27.3954 65.2336 27.7377C65.2095 28.0768 65.2456 28.4583 65.3419 28.8821C65.4382 29.306 65.5724 29.6679 65.7445 29.9679C65.9166 30.2679 66.1227 30.5068 66.3628 30.6847C66.6048 30.8594 66.879 30.9707 67.1852 31.0187C67.4915 31.0667 67.8279 31.049 68.1946 30.9657C68.4442 30.909 68.6697 30.8304 68.8712 30.7299C69.0746 30.6263 69.2522 30.5052 69.4039 30.3668C69.5577 30.2252 69.6854 30.0649 69.7869 29.886C69.8904 29.7038 69.9658 29.5062 70.0131 29.2931C70.0604 29.08 70.0809 28.8511 70.0745 28.6064C70.0707 28.3612 70.0378 28.102 69.9757 27.829ZM79.888 21.0928C80.4965 20.9545 81.054 20.8989 81.5606 20.9259C82.0672 20.953 82.513 21.0554 82.8979 21.2332C83.2829 21.411 83.601 21.6614 83.8522 21.9844C84.1053 22.3043 84.2827 22.6878 84.3844 23.1351L82.4614 23.5721C82.4136 23.3615 82.3301 23.1808 82.2111 23.0301C82.0921 22.8794 81.9383 22.7626 81.7499 22.6796C81.5641 22.596 81.3455 22.5486 81.0941 22.5374C80.8453 22.5256 80.5675 22.5545 80.2606 22.6243C79.9902 22.6857 79.7478 22.7682 79.5334 22.8716C79.3184 22.9724 79.1409 23.088 79.0009 23.2182C78.861 23.3485 78.7616 23.4886 78.7027 23.6388C78.6439 23.7889 78.6325 23.9432 78.6685 24.1019C78.6969 24.2267 78.7464 24.3303 78.8171 24.4127C78.8898 24.4918 78.9783 24.5565 79.0827 24.6066C79.1896 24.6561 79.3099 24.6917 79.4433 24.7134C79.5767 24.735 79.7181 24.7493 79.8674 24.7564C80.0187 24.7603 80.1753 24.7576 80.3372 24.7481C80.5018 24.7381 80.6666 24.7293 80.8317 24.7219L81.4264 24.6852C81.6719 24.6704 81.9302 24.6582 82.2015 24.6485C82.4754 24.6382 82.7476 24.6447 83.0181 24.668C83.2907 24.6881 83.5566 24.7329 83.8158 24.8026C84.077 24.869 84.3154 24.9734 84.531 25.1158C84.7492 25.2577 84.9393 25.4442 85.1012 25.6754C85.2657 25.906 85.387 26.1929 85.465 26.5362C85.5625 26.9652 85.562 27.366 85.4634 27.7384C85.3674 28.1103 85.1777 28.4487 84.8943 28.7538C84.6134 29.0583 84.2409 29.3262 83.7766 29.5575C83.3123 29.7888 82.7603 29.9771 82.1206 30.1225C81.4523 30.2744 80.8496 30.3416 80.3124 30.3243C79.7758 30.3095 79.3085 30.2147 78.9105 30.0399C78.5145 29.8619 78.1875 29.608 77.9293 29.2784C77.6738 28.9481 77.4914 28.5425 77.382 28.0614L79.305 27.6244C79.3576 27.8558 79.4472 28.0515 79.5738 28.2114C79.7004 28.3713 79.866 28.4923 80.0706 28.5744C80.2752 28.6564 80.5172 28.6985 80.7966 28.7006C81.0786 28.7021 81.399 28.6621 81.7579 28.5806C82.0803 28.5073 82.3621 28.4173 82.6031 28.3105C82.8441 28.2038 83.041 28.0838 83.194 27.9506C83.349 27.8142 83.4566 27.6681 83.5169 27.5122C83.5791 27.3531 83.5905 27.1864 83.5509 27.0122C83.5184 26.8692 83.463 26.7519 83.3848 26.6603C83.3091 26.5681 83.2156 26.4936 83.1043 26.4369C82.9929 26.3801 82.8658 26.3379 82.7227 26.3103C82.5797 26.2826 82.4255 26.2657 82.26 26.2596C82.0939 26.2508 81.9189 26.2509 81.735 26.2599C81.5531 26.2657 81.366 26.2727 81.1737 26.2808L80.5734 26.3106C80.3519 26.3227 80.1136 26.3331 79.8585 26.3418C79.6034 26.3506 79.3464 26.3447 79.0875 26.3243C78.8279 26.3012 78.5746 26.2576 78.3276 26.1934C78.0799 26.1266 77.8511 26.0282 77.6411 25.8982C77.433 25.765 77.2517 25.5929 77.0971 25.3819C76.9419 25.1683 76.8277 24.9003 76.7544 24.5779C76.6628 24.1748 76.6659 23.7913 76.7636 23.4272C76.8614 23.0632 77.0442 22.7304 77.312 22.4289C77.5825 22.1268 77.9339 21.8623 78.3664 21.6355C78.8009 21.4055 79.3081 21.2246 79.888 21.0928ZM85.9939 24.4716C85.8904 24.0166 85.84 23.5782 85.8426 23.1564C85.8452 22.7347 85.8955 22.3363 85.9935 21.9613C86.0935 21.5831 86.2395 21.2327 86.4314 20.9101C86.6234 20.5875 86.8573 20.2992 87.1332 20.0451C87.4085 19.7883 87.7237 19.569 88.0789 19.3871C88.4335 19.2026 88.8227 19.0622 89.2466 18.9659C89.6704 18.8695 90.0821 18.8279 90.4816 18.8411C90.8805 18.8516 91.2596 18.9131 91.6188 19.0256C91.9774 19.1356 92.313 19.2945 92.6255 19.5024C92.938 19.7103 93.2198 19.9635 93.4708 20.2619C93.7239 20.5572 93.9428 20.8944 94.1274 21.2736C94.312 21.6528 94.456 22.0699 94.5594 22.525C94.6629 22.98 94.7136 23.4197 94.7116 23.844C94.709 24.2658 94.6574 24.6645 94.5568 25.0401C94.4588 25.4151 94.3125 25.7642 94.118 26.0874C93.926 26.4099 93.6924 26.6996 93.4171 26.9563C93.1444 27.2124 92.8305 27.4315 92.4753 27.6134C92.1233 27.7973 91.7341 27.9377 91.3076 28.0346C90.8838 28.1309 90.4721 28.1726 90.0726 28.1594C89.6736 28.1489 89.2946 28.0874 88.9354 27.9749C88.5788 27.8617 88.2429 27.7015 87.9278 27.4942C87.6153 27.2863 87.3325 27.0347 87.0794 26.7394C86.829 26.4436 86.6114 26.1061 86.4268 25.7269C86.2416 25.3451 86.0973 24.9267 85.9939 24.4716ZM87.9597 24.0249C88.0596 24.4643 88.2011 24.8464 88.3844 25.1713C88.5696 25.4929 88.7898 25.7518 89.045 25.9482C89.2996 26.1419 89.5844 26.27 89.8993 26.3324C90.2169 26.3942 90.5565 26.384 90.9179 26.3019C91.2794 26.2197 91.5889 26.0838 91.8466 25.8939C92.1037 25.7015 92.3036 25.4619 92.4462 25.1752C92.5915 24.8878 92.6768 24.5594 92.7022 24.1899C92.7297 23.8173 92.6934 23.4112 92.5936 22.9717C92.4937 22.5323 92.3512 22.1517 92.1659 21.8301C91.9827 21.5053 91.7638 21.246 91.5092 21.0523C91.2566 20.8554 90.9731 20.727 90.6587 20.6672C90.3437 20.6048 90.0055 20.6147 89.6441 20.6968C89.2826 20.779 88.9721 20.9165 88.7124 21.1096C88.4547 21.2994 88.2532 21.538 88.108 21.8253C87.9621 22.11 87.8755 22.4388 87.848 22.8114C87.8226 23.1809 87.8599 23.5854 87.9597 24.0249ZM95.6154 22.285C95.512 21.8299 95.4616 21.3915 95.4642 20.9698C95.4668 20.5481 95.5171 20.1497 95.615 19.7746C95.715 19.3964 95.861 19.046 96.053 18.7234C96.2449 18.4009 96.4788 18.1125 96.7547 17.8584C97.03 17.6017 97.3452 17.3824 97.7004 17.2005C98.055 17.016 98.4442 16.8755 98.8681 16.7792C99.292 16.6829 99.7036 16.6413 100.103 16.6544C100.502 16.6649 100.881 16.7264 101.24 16.839C101.599 16.9489 101.935 17.1078 102.247 17.3157C102.56 17.5236 102.841 17.7768 103.092 18.0753C103.345 18.3705 103.564 18.7078 103.749 19.0869C103.934 19.4661 104.078 19.8832 104.181 20.3383C104.284 20.7934 104.335 21.2331 104.333 21.6574C104.33 22.0791 104.279 22.4778 104.178 22.8534C104.08 23.2285 103.934 23.5776 103.739 23.9007C103.548 24.2233 103.314 24.5129 103.039 24.7697C102.766 25.0258 102.452 25.2448 102.097 25.4267C101.745 25.6106 101.356 25.751 100.929 25.848C100.505 25.9443 100.094 25.9859 99.6941 25.9728C99.2952 25.9622 98.9161 25.9007 98.5569 25.7882C98.2003 25.6751 97.8644 25.5149 97.5493 25.3075C97.2368 25.0996 96.954 24.848 96.701 24.5528C96.4505 24.2569 96.233 23.9194 96.0483 23.5402C95.8631 23.1585 95.7188 22.74 95.6154 22.285ZM97.5813 21.8382C97.6811 22.2777 97.8227 22.6598 98.0059 22.9846C98.1911 23.3062 98.4113 23.5652 98.6665 23.7615C98.9211 23.9552 99.2059 24.0833 99.5209 24.1457C99.8385 24.2075 100.178 24.1974 100.539 24.1152C100.901 24.0331 101.21 23.8971 101.468 23.7073C101.725 23.5149 101.925 23.2753 102.068 22.9885C102.213 22.7012 102.298 22.3728 102.324 22.0033C102.351 21.6306 102.315 21.2245 102.215 20.7851C102.115 20.3456 101.973 19.9651 101.787 19.6435C101.604 19.3187 101.385 19.0594 101.131 18.8657C100.878 18.6687 100.595 18.5404 100.28 18.4806C99.9653 18.4182 99.627 18.428 99.2656 18.5102C98.9041 18.5923 98.5936 18.7299 98.3339 18.9229C98.0762 19.1127 97.8748 19.3513 97.7295 19.6387C97.5836 19.9234 97.497 20.2521 97.4696 20.6248C97.4442 20.9943 97.4814 21.3987 97.5813 21.8382ZM107.318 19.3299L108.36 23.9131L106.402 24.3581L104.447 15.7574L106.405 15.3124L106.991 17.8906L106.981 17.9011C106.976 17.432 107.026 17.0022 107.131 16.6118C107.236 16.2188 107.394 15.8725 107.605 15.573C107.815 15.2709 108.076 15.0187 108.389 14.8165C108.7 14.6116 109.057 14.4637 109.457 14.3727C109.935 14.264 110.381 14.2558 110.793 14.3481C111.204 14.4378 111.574 14.6217 111.903 14.8998C112.234 15.1774 112.521 15.5455 112.765 16.0042C113.011 16.4624 113.205 17.0022 113.346 17.6237L114.46 22.5266L112.502 22.9716L111.432 18.2637C111.341 17.8632 111.222 17.5239 111.074 17.2458C110.928 16.9645 110.75 16.7424 110.541 16.5794C110.334 16.4158 110.099 16.3121 109.834 16.2682C109.57 16.2217 109.275 16.2355 108.95 16.3093C108.715 16.3625 108.506 16.4376 108.32 16.5345C108.133 16.6288 107.969 16.7427 107.827 16.8761C107.685 17.0096 107.567 17.1623 107.472 17.3343C107.38 17.5057 107.312 17.6947 107.269 17.9014C107.225 18.1082 107.208 18.331 107.215 18.5699C107.223 18.8087 107.258 19.0621 107.318 19.3299Z" fill="#FFC4F8"/>
</svg>
