<svg width="200" height="57" viewBox="0 0 200 57" fill="none" xmlns="http://www.w3.org/2000/svg">
<rect y="0.0449219" width="200" height="56" rx="28" fill="#6C5FF5"/>
<path d="M154 18.0449C148.48 18.0449 144 22.5249 144 28.0449C144 33.5649 148.48 38.0449 154 38.0449C159.52 38.0449 164 33.5649 164 28.0449C164 22.5249 159.52 18.0449 154 18.0449ZM158.03 28.5749L155.03 31.5749C154.88 31.7249 154.69 31.7949 154.5 31.7949C154.31 31.7949 154.12 31.7249 153.97 31.5749C153.68 31.2849 153.68 30.8049 153.97 30.5149L155.69 28.7949H150.5C150.09 28.7949 149.75 28.4549 149.75 28.0449C149.75 27.6349 150.09 27.2949 150.5 27.2949H155.69L153.97 25.5749C153.68 25.2849 153.68 24.8049 153.97 24.5149C154.26 24.2249 154.74 24.2249 155.03 24.5149L158.03 27.5149C158.32 27.8049 158.32 28.2849 158.03 28.5749Z" fill="#EDF0FF"/>
<path d="M44.108 26.3347H41.983C41.9223 25.9862 41.8106 25.6775 41.6477 25.4086C41.4848 25.1358 41.2822 24.9048 41.0398 24.7154C40.7973 24.526 40.5208 24.3839 40.2102 24.2892C39.9034 24.1908 39.572 24.1415 39.2159 24.1415C38.5833 24.1415 38.0227 24.3006 37.5341 24.6188C37.0455 24.9332 36.6629 25.3953 36.3864 26.0051C36.1098 26.6112 35.9716 27.3517 35.9716 28.2267C35.9716 29.1169 36.1098 29.8669 36.3864 30.4767C36.6667 31.0828 37.0492 31.5411 37.5341 31.8517C38.0227 32.1586 38.5814 32.312 39.2102 32.312C39.5587 32.312 39.8845 32.2665 40.1875 32.1756C40.4943 32.0809 40.7689 31.9426 41.0114 31.7608C41.2576 31.579 41.464 31.3555 41.6307 31.0904C41.8011 30.8252 41.9186 30.5222 41.983 30.1813L44.108 30.1926C44.0284 30.7457 43.8561 31.2646 43.5909 31.7495C43.3295 32.2343 42.9867 32.6623 42.5625 33.0336C42.1383 33.401 41.642 33.6889 41.0739 33.8972C40.5057 34.1017 39.875 34.204 39.1818 34.204C38.1591 34.204 37.2462 33.9673 36.4432 33.4938C35.6402 33.0203 35.0076 32.3366 34.5455 31.4426C34.0833 30.5487 33.8523 29.4767 33.8523 28.2267C33.8523 26.973 34.0852 25.901 34.5511 25.0108C35.017 24.1169 35.6515 23.4332 36.4545 22.9597C37.2576 22.4862 38.1667 22.2495 39.1818 22.2495C39.8295 22.2495 40.4318 22.3404 40.9886 22.5222C41.5455 22.704 42.0417 22.9711 42.4773 23.3233C42.9129 23.6718 43.2708 24.0998 43.5511 24.6074C43.8352 25.1112 44.0208 25.687 44.108 26.3347ZM49.9043 34.2154C49.052 34.2154 48.3134 34.0279 47.6884 33.6529C47.0634 33.2779 46.5785 32.7533 46.2338 32.079C45.8929 31.4048 45.7224 30.6169 45.7224 29.7154C45.7224 28.8139 45.8929 28.0241 46.2338 27.3461C46.5785 26.668 47.0634 26.1415 47.6884 25.7665C48.3134 25.3915 49.052 25.204 49.9043 25.204C50.7565 25.204 51.4952 25.3915 52.1202 25.7665C52.7452 26.1415 53.2281 26.668 53.569 27.3461C53.9137 28.0241 54.0861 28.8139 54.0861 29.7154C54.0861 30.6169 53.9137 31.4048 53.569 32.079C53.2281 32.7533 52.7452 33.2779 52.1202 33.6529C51.4952 34.0279 50.7565 34.2154 49.9043 34.2154ZM49.9156 32.5676C50.3777 32.5676 50.7641 32.4408 51.0747 32.187C51.3853 31.9294 51.6164 31.5847 51.7679 31.1529C51.9232 30.7211 52.0009 30.24 52.0009 29.7097C52.0009 29.1756 51.9232 28.6926 51.7679 28.2608C51.6164 27.8252 51.3853 27.4786 51.0747 27.2211C50.7641 26.9635 50.3777 26.8347 49.9156 26.8347C49.4421 26.8347 49.0482 26.9635 48.7338 27.2211C48.4232 27.4786 48.1902 27.8252 48.0349 28.2608C47.8834 28.6926 47.8077 29.1756 47.8077 29.7097C47.8077 30.24 47.8834 30.7211 48.0349 31.1529C48.1902 31.5847 48.4232 31.9294 48.7338 32.187C49.0482 32.4408 49.4421 32.5676 49.9156 32.5676ZM55.9818 34.0449V25.3176H57.9477V26.8006H58.05C58.2318 26.3006 58.533 25.9105 58.9534 25.6301C59.3739 25.3461 59.8758 25.204 60.4591 25.204C61.05 25.204 61.5481 25.348 61.9534 25.6358C62.3625 25.9199 62.6504 26.3082 62.817 26.8006H62.908C63.1011 26.3158 63.4269 25.9294 63.8852 25.6415C64.3473 25.3498 64.8947 25.204 65.5273 25.204C66.3303 25.204 66.9856 25.4578 67.4932 25.9654C68.0008 26.473 68.2545 27.2135 68.2545 28.187V34.0449H66.192V28.5051C66.192 27.9635 66.0481 27.5676 65.7602 27.3176C65.4723 27.0639 65.1201 26.937 64.7034 26.937C64.2072 26.937 63.8189 27.0923 63.5386 27.4029C63.2621 27.7097 63.1239 28.1093 63.1239 28.6017V34.0449H61.1068V28.4199C61.1068 27.9692 60.9705 27.6093 60.6977 27.3404C60.4288 27.0714 60.0765 26.937 59.6409 26.937C59.3455 26.937 59.0765 27.0127 58.8341 27.1642C58.5917 27.312 58.3985 27.5222 58.2545 27.7949C58.1106 28.0639 58.0386 28.3783 58.0386 28.7381V34.0449H55.9818ZM70.4912 34.0449V25.3176H72.548V34.0449H70.4912ZM71.5253 24.079C71.1995 24.079 70.9192 23.9711 70.6844 23.7551C70.4495 23.5355 70.3321 23.2722 70.3321 22.9654C70.3321 22.6548 70.4495 22.3915 70.6844 22.1756C70.9192 21.9559 71.1995 21.8461 71.5253 21.8461C71.8548 21.8461 72.1351 21.9559 72.3662 22.1756C72.601 22.3915 72.7185 22.6548 72.7185 22.9654C72.7185 23.2722 72.601 23.5355 72.3662 23.7551C72.1351 23.9711 71.8548 24.079 71.5253 24.079ZM76.8699 28.9313V34.0449H74.8131V25.3176H76.779V26.8006H76.8812C77.082 26.312 77.4021 25.9237 77.8415 25.6358C78.2847 25.348 78.832 25.204 79.4835 25.204C80.0858 25.204 80.6104 25.3328 81.0574 25.5904C81.5081 25.848 81.8566 26.2211 82.1028 26.7097C82.3528 27.1983 82.4759 27.7911 82.4722 28.4881V34.0449H80.4153V28.8063C80.4153 28.223 80.2638 27.7665 79.9608 27.437C79.6616 27.1074 79.2468 26.9426 78.7165 26.9426C78.3566 26.9426 78.0366 27.0222 77.7562 27.1813C77.4797 27.3366 77.2619 27.562 77.1028 27.8574C76.9475 28.1529 76.8699 28.5108 76.8699 28.9313ZM88.5085 37.4995C87.7699 37.4995 87.1354 37.3991 86.6051 37.1983C86.0748 37.0014 85.6487 36.7362 85.3267 36.4029C85.0047 36.0695 84.7812 35.7002 84.6562 35.2949L86.5085 34.8461C86.5919 35.0165 86.7131 35.1851 86.8722 35.3517C87.0313 35.5222 87.2453 35.6623 87.5142 35.7722C87.7869 35.8858 88.1297 35.9426 88.5426 35.9426C89.1259 35.9426 89.6089 35.8006 89.9915 35.5165C90.3741 35.2362 90.5653 34.7741 90.5653 34.1301V32.4767H90.4631C90.357 32.6889 90.2017 32.9067 89.9972 33.1301C89.7964 33.3536 89.5294 33.5411 89.196 33.6926C88.8665 33.8442 88.4517 33.9199 87.9517 33.9199C87.2812 33.9199 86.6733 33.7627 86.1278 33.4483C85.5862 33.1301 85.1544 32.6567 84.8324 32.0279C84.5142 31.3953 84.3551 30.6036 84.3551 29.6529C84.3551 28.6945 84.5142 27.8858 84.8324 27.2267C85.1544 26.5639 85.5881 26.062 86.1335 25.7211C86.679 25.3764 87.2869 25.204 87.9574 25.204C88.4688 25.204 88.8892 25.2911 89.2188 25.4654C89.5521 25.6358 89.8172 25.8423 90.0142 26.0847C90.2112 26.3233 90.3608 26.5487 90.4631 26.7608H90.5767V25.3176H92.6051V34.187C92.6051 34.9332 92.4271 35.5506 92.071 36.0392C91.715 36.5279 91.2282 36.8934 90.6108 37.1358C89.9934 37.3783 89.2926 37.4995 88.5085 37.4995ZM88.5256 32.3063C88.9612 32.3063 89.3324 32.2002 89.6392 31.9881C89.946 31.776 90.179 31.4711 90.3381 31.0733C90.4972 30.6756 90.5767 30.1983 90.5767 29.6415C90.5767 29.0923 90.4972 28.6112 90.3381 28.1983C90.1828 27.7855 89.9517 27.4654 89.6449 27.2381C89.3419 27.007 88.9688 26.8915 88.5256 26.8915C88.0672 26.8915 87.6847 27.0108 87.3778 27.2495C87.071 27.4881 86.84 27.8158 86.6847 28.2324C86.5294 28.6453 86.4517 29.115 86.4517 29.6415C86.4517 30.1756 86.5294 30.6434 86.6847 31.0449C86.8438 31.4426 87.0767 31.7533 87.3835 31.9767C87.6941 32.1964 88.0748 32.3063 88.5256 32.3063ZM105.397 25.6074C105.344 25.1112 105.12 24.7248 104.726 24.4483C104.336 24.1718 103.828 24.0336 103.203 24.0336C102.764 24.0336 102.387 24.0998 102.073 24.2324C101.758 24.365 101.518 24.5449 101.351 24.7722C101.184 24.9995 101.099 25.2589 101.095 25.5506C101.095 25.793 101.15 26.0033 101.26 26.1813C101.374 26.3593 101.527 26.5108 101.72 26.6358C101.914 26.757 102.128 26.8593 102.363 26.9426C102.597 27.026 102.834 27.0961 103.073 27.1529L104.164 27.4256C104.603 27.5279 105.025 27.6661 105.431 27.8404C105.84 28.0146 106.205 28.2343 106.527 28.4995C106.853 28.7646 107.111 29.0847 107.3 29.4597C107.489 29.8347 107.584 30.2741 107.584 30.7779C107.584 31.4597 107.41 32.0601 107.061 32.579C106.713 33.0942 106.209 33.4976 105.55 33.7892C104.895 34.0771 104.101 34.2211 103.169 34.2211C102.264 34.2211 101.478 34.0809 100.811 33.8006C100.148 33.5203 99.6295 33.1112 99.2545 32.5733C98.8833 32.0355 98.6826 31.3801 98.6523 30.6074H100.726C100.756 31.0127 100.881 31.3498 101.101 31.6188C101.321 31.8877 101.607 32.0885 101.959 32.2211C102.315 32.3536 102.713 32.4199 103.152 32.4199C103.611 32.4199 104.012 32.3517 104.357 32.2154C104.705 32.0752 104.978 31.882 105.175 31.6358C105.372 31.3858 105.472 31.0942 105.476 30.7608C105.472 30.4578 105.383 30.2078 105.209 30.0108C105.035 29.8101 104.791 29.6434 104.476 29.5108C104.166 29.3745 103.802 29.2533 103.385 29.1472L102.061 28.8063C101.103 28.5601 100.345 28.187 99.7886 27.687C99.2356 27.1832 98.9591 26.5146 98.9591 25.6813C98.9591 24.9957 99.1447 24.3953 99.5159 23.8801C99.8909 23.365 100.4 22.9654 101.044 22.6813C101.688 22.3934 102.417 22.2495 103.232 22.2495C104.058 22.2495 104.781 22.3934 105.402 22.6813C106.027 22.9654 106.518 23.3612 106.874 23.8688C107.23 24.3726 107.414 24.9521 107.425 25.6074H105.397ZM113.329 34.2154C112.477 34.2154 111.738 34.0279 111.113 33.6529C110.488 33.2779 110.004 32.7533 109.659 32.079C109.318 31.4048 109.147 30.6169 109.147 29.7154C109.147 28.8139 109.318 28.0241 109.659 27.3461C110.004 26.668 110.488 26.1415 111.113 25.7665C111.738 25.3915 112.477 25.204 113.329 25.204C114.182 25.204 114.92 25.3915 115.545 25.7665C116.17 26.1415 116.653 26.668 116.994 27.3461C117.339 28.0241 117.511 28.8139 117.511 29.7154C117.511 30.6169 117.339 31.4048 116.994 32.079C116.653 32.7533 116.17 33.2779 115.545 33.6529C114.92 34.0279 114.182 34.2154 113.329 34.2154ZM113.341 32.5676C113.803 32.5676 114.189 32.4408 114.5 32.187C114.81 31.9294 115.041 31.5847 115.193 31.1529C115.348 30.7211 115.426 30.24 115.426 29.7097C115.426 29.1756 115.348 28.6926 115.193 28.2608C115.041 27.8252 114.81 27.4786 114.5 27.2211C114.189 26.9635 113.803 26.8347 113.341 26.8347C112.867 26.8347 112.473 26.9635 112.159 27.2211C111.848 27.4786 111.615 27.8252 111.46 28.2608C111.308 28.6926 111.233 29.1756 111.233 29.7097C111.233 30.24 111.308 30.7211 111.46 31.1529C111.615 31.5847 111.848 31.9294 112.159 32.187C112.473 32.4408 112.867 32.5676 113.341 32.5676ZM123.214 34.2154C122.361 34.2154 121.623 34.0279 120.998 33.6529C120.373 33.2779 119.888 32.7533 119.543 32.079C119.202 31.4048 119.032 30.6169 119.032 29.7154C119.032 28.8139 119.202 28.0241 119.543 27.3461C119.888 26.668 120.373 26.1415 120.998 25.7665C121.623 25.3915 122.361 25.204 123.214 25.204C124.066 25.204 124.805 25.3915 125.43 25.7665C126.055 26.1415 126.537 26.668 126.878 27.3461C127.223 28.0241 127.395 28.8139 127.395 29.7154C127.395 30.6169 127.223 31.4048 126.878 32.079C126.537 32.7533 126.055 33.2779 125.43 33.6529C124.805 34.0279 124.066 34.2154 123.214 34.2154ZM123.225 32.5676C123.687 32.5676 124.073 32.4408 124.384 32.187C124.695 31.9294 124.926 31.5847 125.077 31.1529C125.233 30.7211 125.31 30.24 125.31 29.7097C125.31 29.1756 125.233 28.6926 125.077 28.2608C124.926 27.8252 124.695 27.4786 124.384 27.2211C124.073 26.9635 123.687 26.8347 123.225 26.8347C122.752 26.8347 122.358 26.9635 122.043 27.2211C121.733 27.4786 121.5 27.8252 121.344 28.2608C121.193 28.6926 121.117 29.1756 121.117 29.7097C121.117 30.24 121.193 30.7211 121.344 31.1529C121.5 31.5847 121.733 31.9294 122.043 32.187C122.358 32.4408 122.752 32.5676 123.225 32.5676ZM131.348 28.9313V34.0449H129.291V25.3176H131.257V26.8006H131.359C131.56 26.312 131.88 25.9237 132.32 25.6358C132.763 25.348 133.31 25.204 133.962 25.204C134.564 25.204 135.089 25.3328 135.536 25.5904C135.986 25.848 136.335 26.2211 136.581 26.7097C136.831 27.1983 136.954 27.7911 136.95 28.4881V34.0449H134.893V28.8063C134.893 28.223 134.742 27.7665 134.439 27.437C134.14 27.1074 133.725 26.9426 133.195 26.9426C132.835 26.9426 132.515 27.0222 132.234 27.1813C131.958 27.3366 131.74 27.562 131.581 27.8574C131.426 28.1529 131.348 28.5108 131.348 28.9313Z" fill="#EDF0FF"/>
</svg>
